# xmcd
#
# Track frame offsets: 
#        150
#        36968
#        60405
#        85618
#        108713
#        136618
#        164060
#        186228
#        212513
#        243123
#
# Disc length: 3680 seconds
#
# Revision: 1
# Processed by: cddbd v1.5.2PL0 Copyright (c) Steve Scherf et al.
# Submitted via: ExactAudioCopy v1.0b3
#
DISCID=800e5e0a
DTITLE=Various Artist - Vi Yeu Em
DYEAR=1996
DGENRE=VPop
TTITLE0=Huong Lan - Doi thong hai mo
TTITLE1=Thanh Tuyen - Nguoi da di roi
TTITLE2=Giao Linh - Dan ao mua Xuan
TTITLE3=Phuong Dung - Vong gac dem suong
TTITLE4=Huong Lan - Vi yeu em
TTITLE5=Giao Linh - Tinh chi dep
TTITLE6=Thanh Tuyen  - Nua dem nguyen cau
TTITLE7=Huong Lan - Sau co do
TTITLE8=Ngoc Minh - Sao chua thay hoi am
TTITLE9=Phuong Dung - Ke chuyen trong dem
EXTD=
EXTT0=
EXTT1=
EXTT2=
EXTT3=
EXTT4=
EXTT5=
EXTT6=
EXTT7=
EXTT8=
EXTT9=
PLAYORDER=
